<svg xmlns="http://www.w3.org/2000/svg" viewBox="0 0 255.87 226.77"><defs><style>.cls-1{fill:#1f140f;}.cls-1,.cls-3{fill-rule:evenodd;}.cls-2,.cls-3{fill:#c3c5ca;}</style></defs><g id="Capa_2" data-name="Capa 2"><g id="Capa_1-2" data-name="Capa 1"><path class="cls-1" d="M61.26,135.84c-.71-.25-1.1-.5-1.81-.75-.68,5-1,9.63,1.88,16.63,3,6.05,8.24,9.2,11.94,11q45.84-1.06,91.67-2.16c.93-2.67,1.46-5.19,2.38-7.89a11.12,11.12,0,0,1,.36-3.77,15.88,15.88,0,0,1,2-4.51c.54-1-2.23-1.92,0-2.81s3.63-1.1,3.81-1.63.21-.86.53-1.92l14.64-1.92c0-.28,0-2.27-.07-2.56l-14.14,1c.28-.82.53-1.56.78-2.45-14.18,1.56-28.75,3.2-43,4.58-.32,2.67-.07,4.62-2.2,6.5-8.24,3.63-20.36,3.38-31.8,3.17-20.86-.93-26-1.57-37.06-4.69A17.41,17.41,0,0,1,61.26,135.84Z"/><path class="cls-1" d="M59.7,131.4c22.17-7.14,42.53-8.57,65.52-6.33l-6.08,9.81c6.89-6.54,26.15-8.07,41.89-8.07-1.1,1.57-4.37,5.09-5.5,6.65,5.15-4.34,24.55-7,33.79-2.56-4.59-11.9-3.73-24.16-1.71-32.8-7.07,7.5-14.28,15.43-21.32,22.92a117.36,117.36,0,0,1,.25-49.46C155.88,84,146.47,96.93,136.45,109.9c-3.73-20.15.81-46.58,4.79-55.36C112.82,79.17,85.14,103.83,59.7,131.4Z"/><path class="cls-1" d="M166.54,71.67c-2.06,1.28-3.94,1.56-6.07,2.1-2.92.56-2.92-.57-4.52-1.11-3.27-.88-5.33.93-7.56,2.31a7.41,7.41,0,0,1-5.16,1.21,6.81,6.81,0,0,0,4.62.32c1.81-.68,2.74-1.74,4.52-1.42,1.84.67.63,2.63,1.17,3.8,1.21,1.85,4.08-.42,5.68-1.28a2.21,2.21,0,0,1,2.35,0C163.31,75.58,164.8,73.73,166.54,71.67Z"/><path class="cls-1" d="M141.28,54.51c-2.63,1.66-6.36,2.16-9.06,2.84-3.84.74-3.81-.75-5.9-1.39-4.23-1.17-6.93,1.21-9.77,3a9.64,9.64,0,0,1-6.72,1.53,8.45,8.45,0,0,0,6,.42c2.34-.89,3.55-2.24,5.82-1.85,2.46.93.86,3.45,1.53,4.94,1.56,2.42,5.3-.53,7.39-1.63,1.71-.75,1.57-.61,2.42-.21C135.59,59.45,139,57.17,141.28,54.51Z"/><path class="cls-1" d="M187.44,98.32a15.22,15.22,0,0,1-4.77,1.92c-2.23.43-2.2-.43-3.44-.82-2.49-.67-4.06.71-5.72,1.74a5.46,5.46,0,0,1-3.91.89,5,5,0,0,0,3.51.25c1.36-.5,2.06-1.28,3.38-1.07,1.46.53.5,2,.93,2.88.88,1.42,3.09-.28,4.29-1,1-.43,1.11-.25,1.64,0C184.66,101.55,186.12,99.88,187.44,98.32Z"/><path class="cls-2" d="M213,105.5a11.09,11.09,0,0,0-4.14-5.24c-.4-.26-2.87-1.07-2.91-1.13-.45-2.63-.89-5.25-1.34-7.88a10.42,10.42,0,0,0,4.49-10.89,35.3,35.3,0,0,0-1.9-5.48c-.91-2.27-1.48-4.84-2.66-6.93-2.05-3.62-5.61-6.72-11.05-6l-4.06-6.5c.35-.63.7-1.26,1.06-1.88a10.08,10.08,0,0,0,.48-6.13,18.36,18.36,0,0,0-2.14-4.6c-1.34-1.86-3.31-3.22-4.7-5a22.77,22.77,0,0,0-4-4.08c-1.24-.94-3.88-2.58-5.81-2.57a15,15,0,0,0-3.54.12c-1,.29-1.92,1-2.86,1.25l-6-4.2c-.39-.72.29-2.13.11-3.26a11.28,11.28,0,0,0-1.87-4.82c-2.21-3.14-5.85-4.46-9.6-6.14a40.15,40.15,0,0,0-6.23-2.62,10.4,10.4,0,0,0-11.09,3.74l-7.64-1.72a7.59,7.59,0,0,0-1.51-3.8,11.82,11.82,0,0,0-6.48-4.45c-.73.18-2.75-.54-3.94-.4l-8.64-.26-1.17.08-2.29.51c-3.39,1.1-6.51,3.4-7.16,7.31L87.17,13.7C83.93,8.77,77.93,8,72,10.58l-4.17,1.55a25.68,25.68,0,0,0-3.75,1.46c-4.07,2-6.66,5.49-6.35,11L51.22,28.7a14.68,14.68,0,0,0-2.76-1.45C41.92,25.1,37,30.68,33.59,33.9c-3,2.88-7.63,6.31-6.65,12.62a13,13,0,0,0,1.32,3.55l-4.39,6.11c-9.24-1.53-11.7,5.8-14.55,12C8.11,70.82,6,74.37,6.9,78.37a12,12,0,0,0,2.37,5l1.51,1.33L9,92.17C2.43,93.44-.2,99.4.23,106.7c-.08,2.36-.15,4.72-.23,7.07.75,4.58,3.07,8.91,7.82,9.73l1.29,7.93a10.24,10.24,0,0,0-4.53,10.84,24.09,24.09,0,0,0,1.32,4c2.28,5.93,3.9,13.44,11.12,14.53a15.88,15.88,0,0,0,3.07-.08c1.36,2.19,2.71,4.39,4.06,6.58a11.91,11.91,0,0,0-1.45,2.77c-2.35,7.23,4.35,12,7.48,15.72,2,2.37,4.1,4.41,7.47,5.48a11.18,11.18,0,0,0,6.47-.24l1.51-.77,3.12,2.25a35.44,35.44,0,0,1,2.93,2.24l5.66,3.41c1.39.85,3.66,1.92,4.69,0a2.51,2.51,0,0,0-.82-3.13c-2.48-1.63-5.17-2.86-7.54-4.56l-5.1-3.67a15,15,0,0,1,.62-2.93,10.69,10.69,0,0,0-.52-4.84c-1.09-3.48-3.87-5.17-5.85-7.74-1.72-2.23-4.26-5-7-6.18-1.93-.83-5.47-1.54-7.71-.46-.68-.45-3.63-5.2-4-6.13a12.32,12.32,0,0,0,2.95-6.08c.06-.59.12-1.17.17-1.76-.07-.83-.15-1.65-.23-2.48a55.72,55.72,0,0,0-2.47-6.74c-.59-1.57-1.19-3.15-1.78-4.73-1.73-3.05-4.64-6.1-9-6.31a18.56,18.56,0,0,1-.77-3.87c-.19-1.18-.39-2.36-.58-3.55,3.32-1.07,6-4.83,6.67-8.7.09-2,.17-4,.26-6s.14-4.06.2-6.09c-.44-3.92-2.6-7.73-5.87-9.08a4.54,4.54,0,0,1,.37-2.23L15.17,86c7.88-.32,9.94-6.26,12.65-12.22.85-1.89,2.8-5.09,2.52-7.91a13,13,0,0,0-1.12-5,20.46,20.46,0,0,1-1.39-2.25c1.3-1.86,2.61-3.71,3.91-5.56.61-.22,1.49.57,2.22.55,2.11,0,3.7.16,5.5-.4,3.12-1,4.64-3.31,6.93-5.08L49,45.68a13.34,13.34,0,0,0,5.13-8,6.72,6.72,0,0,0,.23-2.6c-.15-.86-.3-1.71-.46-2.57a20.1,20.1,0,0,1,3.06-2l3-1.85,1.18,1.05a13.89,13.89,0,0,0,4.39,1.89l1.39.17a9.14,9.14,0,0,0,3.44-.21,61.36,61.36,0,0,0,6.7-2.48l4.31-1.55a11.23,11.23,0,0,0,6.78-9.31c1.21-.67,5.11-.8,6.72-1.18.59.62,1,1.91,1.58,2.63A10.77,10.77,0,0,0,101,23a8.81,8.81,0,0,0,3.47.86l2.65.05,4,.12c3.64.22,7,.14,9.52-1.4a12.1,12.1,0,0,0,3.49-3.15c.26-.43.52-.85.77-1.28,2.17-.23,4.92,1.38,7.09,1.48a10.92,10.92,0,0,0,5.36,9.4,44.82,44.82,0,0,0,5.39,2.47c3,1.37,5.47,2.7,9.15,3.15A10.66,10.66,0,0,0,158.1,33l1.09-.81c.37-.27,1.18.62,1.47.82l4.32,3c.22.57-.63,1.72-.61,2.54a17.86,17.86,0,0,0,.55,5.36c1.11,3,3.38,4.84,5.36,7,2.35,2.6,4.43,5.42,8.05,6.8a8.62,8.62,0,0,0,3.8.82l3.41-.5c.65.38,3.49,5.1,3.93,6a13,13,0,0,0-2.9,6.09l-.18,1.67c.08.87.16,1.73.23,2.6q1.24,3.32,2.48,6.61l1.77,4.73c1.76,3.14,4.66,6.11,9,6.4.74.73,1,5.56,1.44,7.19-.09.36-1.83,1.18-2.21,1.45a12.22,12.22,0,0,0-3.24,3.84,9.82,9.82,0,0,0-1.29,4.63c0,1.19-.05,2.38-.07,3.58s-.07,2.14-.1,3.2c-.88,5.28.93,9.69,3.63,11.89a7.15,7.15,0,0,0,2.11,1.48c.4.87-.39,2.69-.62,3.61-.87,3.41-1.64,6.58-2.74,9.63-.64,1.74-1.06,3.92.89,4.61,2.44.87,3-1.73,3.55-3.37.64-1.9,1.41-3.84,1.92-5.87.27-1.27.55-2.53.82-3.8s.6-2.56.91-3.84l1.73-.39c1.44-.84,2.95-1.46,4-2.8a14.45,14.45,0,0,0,2.82-6.51c0-1.36.08-2.73.13-4.09,0-1,.06-2,.1-3s.09-1.73.14-2.6A18.43,18.43,0,0,0,213,105.5ZM39.63,177.44c.63-.23,1.34-.16,2-.43,2.83,0,4.08,2.29,4.48,4.55a8.32,8.32,0,0,1-.34,2.87l-.09,0L44,183c-1.07-.89-3.23-3.49-5-1.35s.81,3.78,2,4.73l1.51,1.33c.2.53-2.13.78-2.94.65A6.22,6.22,0,0,1,35.43,186C33.17,182.74,37.16,178.34,39.63,177.44Zm-13.91-4.59a19.56,19.56,0,0,1,.6-2.22l.1,0c1.19,1.35,3.2,5.74,5.83,3.79s-1.38-5-2.06-6.51l-.18-.19,1.72-.29c7.21.6,6.41,7.33,1.76,10.22-3,1.9-6.1.85-7.3-2.28A4.8,4.8,0,0,1,25.72,172.85Zm-2.33-24.37c1.3,2.06.75,5.67-.92,7-1-1.44-2-6.66-5.11-5.26-2.9,1.33.09,5.47.89,7.18v.05c-4,0-7.53-4.1-5.11-7.73,1-1.52,3-2.34,4.84-2.88l1.49-.16C21.23,146.86,22.62,147.27,23.39,148.48Zm-10.51-7.26a2.5,2.5,0,0,0,1.12,0c3.17-1.24.61-4.86.41-7.3,2.64.42,6.74,3.28,5,6.79a7.38,7.38,0,0,1-4.06,3.32c-3.77,1.47-8.46-.56-7.39-5.35a11.3,11.3,0,0,1,1.36-2.9l.61-.55C11,137.27,10.31,140.58,12.88,141.22Zm-.71-21.69-.1.09c-.61-2.45.58-6.75-2.85-6.38-2.86.32-1.8,3.91-1.8,6.53-3-.85-5-5.45-2.73-8.33A6.42,6.42,0,0,1,8,109.78l1.49-.11c2.5.35,4.53.8,5.67,2.66C16.79,115,14.26,118.88,12.17,119.53Zm3.41-15.61a5.15,5.15,0,0,1-3.25,2,6.51,6.51,0,0,1-2.65.32c-3.81-.75-7.29-2.93-4.65-7.67a5.89,5.89,0,0,1,2.41-2.23l.8-.31c-.06.51-.11,1-.17,1.53-.44,2.12-.66,4.59,1.16,5.22,3.16,1.12,3.5-3.77,3.65-6.2C15,97.37,17.2,101.23,15.58,103.92Zm.58-21.24c.82-1.92,2.88-6.29.24-7.34s-3.15,1.75-3.7,3.37c-.27.78-.55,1.57-.83,2.36C10,79.63,9.38,75.67,11,73.52c1-1.35,1.76-1,3.38-1.62,3.19,0,6.39,1.84,7.27,4.37C23,80,18.81,82.68,16.16,82.68Zm7.31-12.37a7.11,7.11,0,0,1-4.13-.78c-2.39-1-5.29-4.29-3.07-7.4a6.88,6.88,0,0,1,2.93-2.32l1.63-.34h.89c-.63,1.59-4,5.07-1.76,6.81s3.64-1,4.51-2.38l1.2-2.07.14-.09a9.16,9.16,0,0,1,1.26,2.63A4.62,4.62,0,0,1,23.47,70.31ZM37.7,50.53a7.84,7.84,0,0,1-2,.06,3.36,3.36,0,0,1-1.53-.31h-.1c.79-1.53,4.69-3.75,3.28-6.17-1.66-2.87-4.06,0-5.09,1.25l-1.38,1.56-.23.18c-1.57-2.54.36-6.19,2-7.22a14.56,14.56,0,0,1,1.92-.57,7.85,7.85,0,0,1,6.82,5.85C42.2,48.32,39.59,49.94,37.7,50.53ZM51.11,37.3c-.65,3.1-3,5.55-6.68,3.92-2.28-1-6.08-5.4-3.74-8.72a6.11,6.11,0,0,1,3-2l1-.21A5.36,5.36,0,0,1,48,31c-1.07,1.11-6,3.37-3.74,5.88s4.72-1.31,6.41-2.06l.24-.23h0A8.1,8.1,0,0,1,51.11,37.3Zm20.2-10.69a5.14,5.14,0,0,1-6,1.84c-.88-.33-1.51-1-2.29-1.34v-.05c1.34-1.22,6-1.66,5.43-4.55-.72-3.76-5.65-.63-7.35.33a3.68,3.68,0,0,1,.36-2.23c.88-2.35,2.29-2.82,4.44-3.68,3.54,0,4.76,2.48,5.58,5.13A6.4,6.4,0,0,1,71.31,26.61Zm12.41-4.93c-1.27,2-4.34,3.63-6.82,1.73-2.15-1.64-4.17-6.8-1.73-9.56a4.77,4.77,0,0,1,2.54-1.3l1-.08c2.18.06,2.66.75,4.16,1.48l.5.56c-1.33.75-6.65.71-6.07,3.61.75,3.77,5,1.17,7.38.88A11.32,11.32,0,0,1,83.72,21.68Zm22.65-2.46c-2.28,2.56-7.42.07-8-2.52,2.64.05,7.72.11,6.89-3.17-.66-2.62-4.48-1.44-7.13-1.44a5.61,5.61,0,0,1,3.6-3.46l1.82-.34a6.06,6.06,0,0,1,2.13.5C108.81,10.66,108.74,16.58,106.37,19.22Zm14.92-1.81A3.73,3.73,0,0,1,120.1,19c-1.94,1.71-4.6,2.5-6.85.62s-2-6.88-.39-9.13a4.46,4.46,0,0,1,2.49-1.62l.7-.08c2.65,0,5.31,1.65,5.74,4.06-2.26-.17-6.35-1.68-6.82,1.45C114.55,17.1,119.05,17.33,121.29,17.41Zm22,7.62c-2.86,2.17-5.75,1.14-7.37-1.67a10.64,10.64,0,0,1-.74-2.66,3.41,3.41,0,0,1,1.3.39c2,.73,5.1,2.1,6-.35,1.37-3.52-4.25-3.23-5.73-4.47,1-1.3,2.26-1.19,3.66-1.8,2.63,0,4.15.72,5.07,2.47C147,19.6,144.85,23.88,143.33,25Zm15.14,1c-1.71-.49-5-4-6.8-1.76-2,2.5,1.24,3.83,2.65,4.7L156.16,30l.05.09a4,4,0,0,1-1.79,1c-3.86,1.33-7.93-1-6.59-5.84a7.9,7.9,0,0,1,3.45-4.91c.53-.29,1.16-.28,1.77-.53,3.53.11,4.74,2.48,5.43,5.41C158.48,25.49,158.47,25.75,158.47,26Zm16.77,18.59c-3.32,2.24-6.35,1-7.59-2.42a5.49,5.49,0,0,1,.07-3.77v-.09c1.49.73,4.57,5.46,6.79,2.82s-2.54-4.9-3.65-6.3l1.4-.43.79-.08c2.94.06,6.52,2.29,5.57,5.78A8.25,8.25,0,0,1,175.24,44.61Zm12.48,6-.54,1.52c-1.25-1-3-5.45-5.5-4.05-3.49,1.92,1,5.2,1.73,6.82a.93.93,0,0,0,.14.14c-3.31,1.59-8.18-1.69-7.06-5.43a8.3,8.3,0,0,1,4.75-5.12c.68-.26,1.55-.11,2.28-.38a7.73,7.73,0,0,1,2,.69A5.84,5.84,0,0,1,187.72,50.61Zm2.58,23.63a6.35,6.35,0,0,1-.62-1.69,4.2,4.2,0,0,1-.14-2.09,12.8,12.8,0,0,1,1.55-3.28h0c1.27,1.35,1.9,6.52,5,5.31,3.54-1.4-.35-5.44-.74-7.32,5.49,0,8.28,6.8,3.21,9.55C196.2,76,192.09,76.76,190.3,74.24Zm9.35,7.24c-2.91,1.1-.68,5-.32,7.2-3.44-.33-7-4.05-4.51-7.61a8.62,8.62,0,0,1,4.85-2.84l1.49-.16c3,.42,4.14,1.39,4.57,4.23a5.1,5.1,0,0,1-.14,2.37,18.14,18.14,0,0,1-1.15,2.11c-.22.2-.44.4-.67.59C203.14,85.39,202.73,80.32,199.65,81.48Zm6,45.09h0c.3-2.41,1.4-5.89-.89-6.72-3.17-1.15-3.63,3.67-3.65,6.17-.41,0-.83-.51-1.15-.77-1.44-1.18-3.06-4.14-1.6-6.54.81-1.33,2.32-1.9,3.95-2.25l1.21-.07c2.6,0,4.85.91,5.86,2.81C211,122.43,207.81,125.76,205.64,126.57Zm4-16.16c-1.07,1.78-2.87,2.21-5.31,2.51a6.28,6.28,0,0,1-2.32-.37c-.44.14-1.22-.41-1.57-.59a4.06,4.06,0,0,1-2.18-4.79,6.15,6.15,0,0,1,3.42-4.11c0,.49.08,1,.11,1.48.33,2.36,0,4.37,2.24,4.83a2,2,0,0,0,1.4-.29c1.81-1.08.94-3.86.91-6.22C208.75,103.37,211.32,107.65,209.67,110.41Z"/><path class="cls-3" d="M56.85,174.5s20-11,53-12.4,56.6,15.7,88.76,17.38S255.87,156,255.87,156s-28.5,14.36-59.77,10.77S143.66,150,111.54,151.33,56.85,174.5,56.85,174.5Z"/><path class="cls-3" d="M68,198.7s17.91-10.55,47.44-11.87,50.71,15,79.49,16.63S246.13,181,246.13,181s-25.51,13.75-53.51,10.31-46.94-16.13-75.68-14.79S68,198.7,68,198.7Z"/><path class="cls-3" d="M85.81,222s14.64-10.45,38.8-11.76,41.43,14.92,65,16.49,41.89-22.21,41.89-22.21-20.82,13.57-43.74,10.16-38.38-15.92-61.9-14.6S85.81,222,85.81,222Z"/><path class="cls-3" d="M106.65,44.59A41.22,41.22,0,0,1,65.5,85.74v3.45A44.6,44.6,0,1,0,65.5,0V3.45A41.24,41.24,0,0,1,106.65,44.59ZM65.5,85.74h0a41.15,41.15,0,0,1,0-82.29h0V0h0a44.6,44.6,0,0,0,0,89.19h0Z"/><path class="cls-1" d="M44,23.45,65.18,40.08,84.83,25.33,70,44.84l16.77,21L65.61,49.21,46,63.92l14.85-19.5L44,23.45Z"/><path class="cls-1" d="M65.4,0l4.86,39.65,40,4.84-40,4.83L65.4,89,60.53,49.32l-40-4.83,40-4.84L65.4,0Z"/></g></g></svg>